PathFileType	4	(X/Y/Z)	21_coords_data.trc
DataRate	CameraRate	NumFrames	NumMarkers	Units	OrigDataRate	OrigDataStartFrame	OrigNumFrames
30.0	30.0	9	21	m	30.0	50	59
Frame#	Time	THUMB_TIP	THUMB_IP	THUMB_MCP	THUMB_CMC	INDEX_TIP	INDEX_DIP	INDEX_PIP	INDEX_MCP	MIDDLE_TIP	MIDDLE_DIP	MIDDLE_PIP	MIDDLE_MCP	RING_TIP	RING_DIP	RING_PIP	RING_MCP	PINKY_TIP	PINKY_DIP	PINKY_PIP	PINKY_MCP	WRIST
X1	Y1	Z1	X2	Y2	Z2	X3	Y3	Z3	X4	Y4	Z4	X5	Y5	Z5	X6	Y6	Z6	X7	Y7	Z7	X8	Y8	Z8	X9	Y9	Z9	X10	Y10	Z10	X11	Y11	Z11	X12	Y12	Z12	X13	Y13	Z13	X14	Y14	Z14	X15	Y15	Z15	X16	Y16	Z16	X17	Y17	Z17	X18	Y18	Z18	X19	Y19	Z19	X20	Y20	Z20	X21	Y21	Z21
48	1.6333333333333262	0.5153495455056768	-0.0034962251057545357	-0.1619372120305228	0.5082308444921346	-0.010358634563619296	-0.14119519109927303	0.4952564244707009	-0.021522807876820593	-0.11519815935831801	0.48186804017931445	-0.025072920684279576	-0.07279488277359547	0.5862729660049959	0.015475074102204722	-0.12402403702421494	0.569132229470723	0.02106633987443629	-0.12573660764375627	0.5447536124663961	0.027182254374422454	-0.12627368844326714	0.5057233781312791	0.017638416743011143	-0.11216014654156437	0.5907494138397373	0.021365319203201727	-0.1028085735892117	0.5755124892608394	0.03082245775230852	-0.10533813083109689	0.5485045782667781	0.04174526020715619	-0.10615952006236506	0.5069750525310894	0.030879770546318075	-0.0937745474100341	0.585905844308033	0.030170290558641955	-0.08674275836733136	0.5705371231537969	0.039592243748838296	-0.08691366233184761	0.5473507482303399	0.04862934319054435	-0.08596348835325218	0.5102102359918255	0.03677159066389113	-0.07525382497490951	0.5808342385342526	0.03728570117889951	-0.0678405882604396	0.5649038868846321	0.043057886547316127	-0.06541040876252813	0.5441742552188512	0.045568341680047975	-0.06322134388738321	0.5114206101709916	0.031941553101436204	-0.05671036699350274	0.4622830810018609	-0.023011742144276925	-0.051989820119430985
49	1.6666666666666594	0.515623867855983	-0.0026964414488266364	-0.16166671878014316	0.5084747438780668	-0.009670939046251492	-0.14097260344239793	0.49545694776255395	-0.021052605533094626	-0.11509182578257471	0.4819155369108604	-0.024918482201995884	-0.07276482270266738	0.5858924159456624	0.016103786904087092	-0.12395523031514855	0.5687372194173381	0.021649008464728947	-0.12567271391564283	0.5443486598654719	0.027722110604004757	-0.12624317547525454	0.5053406475491344	0.01801387875861926	-0.11218041246207999	0.5903457563781862	0.0219158636210669	-0.10288335779354318	0.5750746037340135	0.03132653750292891	-0.10537957773730189	0.5480334549502558	0.04217056954072007	-0.10614950735618689	0.5065127298187371	0.03125925369846516	-0.09377532083167417	0.5854514015774734	0.030762901460447578	-0.0868255889429761	0.5700485451232038	0.04012948315136278	-0.0869640103162479	0.5468406010972652	0.049108733636871515	-0.08599222134358364	0.5097520773701241	0.03715186663730152	-0.07521281629061838	0.5804152022543886	0.03772067508561727	-0.06796390910357397	0.564478202818772	0.0434631640327976	-0.06550710840333995	0.5437476471335823	0.045933722024850576	-0.0632817043521281	0.5110124534824105	0.03230641705106452	-0.056679651128189734	0.4622830810018609	-0.023011742144276925	-0.051989820119430985
51	1.7000000000000006	0.5154234114467593	-0.003155241487577176	-0.1619197304447756	0.5083156970419266	-0.009966183195860623	-0.14115698811661248	0.49535000205524127	-0.02114201454590192	-0.1151606124625395	0.4818970692877341	-0.024833657580580537	-0.07278986345266902	0.585742334147241	0.01685426831129644	-0.12472460950929387	0.5684887046034415	0.0221565690904455	-0.12620713236333814	0.5440302748438288	0.02796198828244334	-0.12651070228819739	0.505122902422817	0.018123047405091963	-0.11226122132555627	0.5903112942825738	0.022662828845614547	-0.10343423273115993	0.5748853105953806	0.03185400376494696	-0.10579248014919773	0.547731510185786	0.04242448295472878	-0.10638039427073287	0.506292325058535	0.031377585224875215	-0.09385410561305052	0.58535676671265	0.031500987301289585	-0.08727229455317553	0.569824504381601	0.04065224388256561	-0.0873299995194402	0.5465297089711176	0.04939370723435332	-0.08627202775560261	0.5095532089871724	0.03728077905771099	-0.07528402275356505	0.5803044924907125	0.03807916423307578	-0.06824500008991885	0.5643192394064596	0.043678072611647134	-0.06577034682112604	0.5435778277484159	0.04602197447446277	-0.0635093767883621	0.5108585736666049	0.03243601649575456	-0.05674508753296581	0.4622830810018609	-0.023011742144276925	-0.051989820119430985
52	1.733333333333334	0.5151264385329504	-0.003915323648171376	-0.1622761710990961	0.5080745142384848	-0.010503230616419557	-0.1414226379326795	0.4951764835266946	-0.021375449376660915	-0.11526435696876358	0.4818629543485003	-0.02478613308160349	-0.07282608205700247	0.5856652462329403	0.01755877551867302	-0.12564867946057823	0.5683095801097396	0.022591081475367925	-0.1268556385229337	0.5437793712477453	0.028093645335190875	-0.1268337946335215	0.5049902013039682	0.018137007492233348	-0.11234580816414075	0.5903901662490328	0.02341777331021333	-0.10407049595504914	0.574794336925474	0.03235750472724375	-0.1062730648874054	0.5475164349596923	0.04261334086870672	-0.10665179881071574	0.506176620429934	0.03140002042712109	-0.0939463236004171	0.5853906992198553	0.032210921437411666	-0.0877687791342121	0.5697131264801125	0.04111106688671262	-0.08773525345203304	0.5463232038224122	0.049582059362943354	-0.08658035798730823	0.5094622859166069	0.03731664985571126	-0.07537530132697012	0.5803067671848078	0.03837075014141622	-0.0685287241409257	0.5642681588721226	0.04380933741514459	-0.06604179594367032	0.5435148270648986	0.046009405565183514	-0.06374594358899843	0.5108074666939071	0.0324738499792423	-0.05682490583863231	0.4622830810018609	-0.023011742144276925	-0.051989820119430985
53	1.7666666666666675	0.5148091349823922	-0.004808178296956456	-0.1626542632814615	0.5078120381999931	-0.011154136687950844	-0.14170743897042315	0.49497877151030856	-0.021684189224329353	-0.11537788789843284	0.48182161159518927	-0.024771124504996744	-0.07286612513162982	0.5856289613136315	0.018184354636930022	-0.1266027971477931	0.5681819778000461	0.022953086088204233	-0.12753121872353734	0.5435886469121797	0.02815377985234524	-0.12716970356266832	0.5049242991404936	0.01808804736032288	-0.11242571038615179	0.5905327601098453	0.024140877747587663	-0.1047253510962719	0.574772044990794	0.03282532575780883	-0.1067699101425883	0.547372240792809	0.04275680574518226	-0.10693110931282068	0.5061412044073903	0.03135587964372821	-0.09404047536357396	0.5855073241286822	0.03284922000959878	-0.0882625172952679	0.5696863336643435	0.04149099169336201	-0.08813585675281788	0.5462045557748018	0.0496893164202985	-0.08688144142369669	0.5094521056834771	0.03728664129693904	-0.07547302803404887	0.5803845540011621	0.03860088282909546	-0.0687942544221205	0.5642943013788414	0.043880618289527606	-0.0662986254397282	0.5435297073956145	0.045933352771894365	-0.0639684029489267	0.5108328845748648	0.03244428532295218	-0.05690821259834855	0.4622830810018609	-0.023011742144276925	-0.051989820119430985
54	1.8000000000000007	0.5145505654862369	-0.005661921525286773	-0.16297773367415513	0.5075912131450541	-0.01178873710168804	-0.14195323496707435	0.4947998189634004	-0.021999355875782278	-0.1154778974028492	0.481781456185536	-0.0247838123162889	-0.07290256378213833	0.5856099833997863	0.01869611591256537	-0.12746200575058864	0.5680924907048812	0.023242375367776513	-0.12814682298887203	0.5434513218380751	0.02817919072874786	-0.12747564196320038	0.5049067049237439	0.018008364810413457	-0.11249222108990187	0.5906941912678069	0.02479040892197726	-0.10533172659617951	0.5747909926843593	0.03324494021048985	-0.10723150961194483	0.5472831528228641	0.04287438407633859	-0.1071856076641502	0.5061613733870285	0.03127421575434919	-0.09412485454911113	0.5856645191199755	0.03337065662828753	-0.0887011619467728	0.5697178211349194	0.04177645324608659	-0.08848807371714618	0.5461575235279982	0.04973094950554735	-0.08713961350952837	0.5094951358376965	0.03721763610717099	-0.0755634677502508	0.5805014950027461	0.03877496968700278	-0.06902105894326549	0.5643673157041473	0.04391539000533429	-0.06651819312353913	0.5435934617006768	0.0458308694348285	-0.06415388616426476	0.5109083002985348	0.032371379808359246	-0.05698410136199217	0.46228308100186083	-0.023011742144276925	-0.051989820119430985
55	1.833333333333334	0.5144323678407074	-0.006302105951624171	-0.16317628560642194	0.5074769153410903	-0.012275197267563875	-0.14210631027048448	0.4946831206186631	-0.02225210616320117	-0.11554317593945052	0.48175093053284374	-0.02481933972428163	-0.07292794660266178	0.5855925529770474	0.019058432725406305	-0.12810219086459618	0.5680319506684359	0.023458568023349335	-0.12861605458055936	0.5433613081626973	0.028206892699196184	-0.1277090572670051	0.5049188609986273	0.01793017168276234	-0.11253660343817251	0.5908343231261479	0.025323514967679595	-0.10582275971708821	0.5748261289304739	0.03360335734818232	-0.10760655587910284	0.5472338848623918	0.042985654668887485	-0.1073826937043737	0.5062123904495401	0.031184022898378072	-0.09418775510316424	0.5858237960002355	0.03372900499568654	-0.08903274527020089	0.5697829528031078	0.04195156660454402	-0.08874843889724326	0.5461662356447294	0.049722570548571876	-0.08731940168181895	0.5095638161405455	0.03713648953099524	-0.07563290156164904	0.5806223700629471	0.03889862596274518	-0.06918886659914525	0.5644573146624065	0.04393715050369151	-0.06667803917621651	0.5436771983819375	0.045738961655970134	-0.06427965160501081	0.5110071965503955	0.03227916399145048	-0.05704167687742012	0.4622830810018609	-0.023011742144276925	-0.051989820119430985
56	1.866666666666667	0.5145368948624132	-0.006553860371321774	-0.16318259127218848	0.5075346123093996	-0.012481434321703455	-0.14211527283555503	0.4946723178139055	-0.022373831441445224	-0.1155536113751624	0.4817384934011339	-0.024872811217356516	-0.07293482108098359	0.585564400103321	0.01923610866723846	-0.12840048505959778	0.5679934727648406	0.02360158849325511	-0.1288533629178361	0.5433130040955997	0.028274086622651406	-0.12782766291422443	0.5049422254364055	0.017885730543004907	-0.11255017957927649	0.5909162064034736	0.025697059295774594	-0.1061320142395753	0.5748542205587157	0.03388739985073641	-0.10784401082734696	0.5472096665452729	0.043110350846501166	-0.10748995104769021	0.5062696189419065	0.031114336852949398	-0.0942175710237233	0.5859487405655169	0.033877830653353036	-0.08920563967616912	0.5698578885371169	0.04200028528651023	-0.0888736581519245	0.5462149573498187	0.049679938491993814	-0.08738546780247758	0.5096307028805973	0.037070158096053296	-0.07566767802379437	0.5807125651838186	0.03897767231524785	-0.0692775468900797	0.5645347149788708	0.04396946572449012	-0.06675580913493684	0.5437520989257592	0.045694693561804334	-0.0643230169328981	0.5111032097263256	0.03219180108376196	-0.057070060310282056	0.46228308100186083	-0.023011742144276925	-0.051989820119430985
57	1.9	0.5149438661781122	-0.006245024909264263	-0.16292570416083763	0.5078279068204391	-0.012277154711201055	-0.1419262629189253	0.49481048622449886	-0.02229627561870029	-0.1154879578055239	0.48175256656528787	-0.024939291692647414	-0.07291572271965552	0.585509340176878	0.01919528205741383	-0.12823461836386463	0.5679688357249464	0.023671916091587475	-0.12877355369936383	0.5433007237344315	0.028417981785982982	-0.12778920404202954	0.5049582588356272	0.017907323084520477	-0.1125242922130889	0.5909029347254229	0.025868286577118704	-0.10619330982153108	0.5748525036504977	0.03408382350548278	-0.10789290250442829	0.5471960297504136	0.04326828836015684	-0.10747504278247633	0.5063085332275725	0.031094226936142944	-0.09420278684993011	0.5860019941558943	0.033771170191503996	-0.08916822934699564	0.5699179296074888	0.041906390814337446	-0.08882030260103602	0.5462875452655653	0.049618777363341304	-0.08730240650059717	0.5096684567736741	0.037045704813186586	-0.0756541860926726	0.580736997869239	0.03901785727911378	-0.0692669062494532	0.5645697650644594	0.044035840297548035	-0.06672910604794757	0.5437891508444174	0.04573515842538134	-0.06426123053686428	0.5111701302833221	0.03213362189911839	-0.05705837327327856	0.4622830810018609	-0.023011742144276925	-0.051989820119430985
